name processed_emg_signals
nRows=60
nColumns=7
 
endheader
time	LGLTMED	LRF	LADDLONG	LBF	LTA	LGM
12.139999999999976	0.7133940944911472	0.7157940949685491	0.3608132096460241	0.5346652081692334	0.7134593358068523	0.5959032403351361
12.149999999999975	0.7102808082641985	0.7144805840221907	0.3612773809127122	0.5341031199806117	0.7127950128646123	0.5939916282080729
12.159999999999975	0.7071754114546003	0.7131470975944462	0.3617136670489764	0.5335093543259184	0.7122008107093692	0.5921564384407957
12.169999999999975	0.7040783125261321	0.7117987896043085	0.3621232596712114	0.5328844298891446	0.7116827833348696	0.5903976980454104
12.179999999999975	0.7009897673305016	0.7104407212361546	0.3625073107811648	0.5322288331314242	0.7112467235347791	0.588715270552335
12.189999999999975	0.6979098892838218	0.7090778507158487	0.3628669298341132	0.5315430230394406	0.7108981510352295	0.5871088638216503
12.199999999999974	0.6948386596895083	0.7077150233697772	0.3632031809597988	0.5308274358066419	0.7106423011933449	0.585578038033234
12.209999999999974	0.6917759381564109	0.7063569619839918	0.3635170803401573	0.530082489431907	0.7104841142857418	0.5841222138240605
12.219999999999974	0.6887214730602285	0.705008257479145	0.3638095937471335	0.5293085882207049	0.7104282254090923	0.5827406805405506
12.229999999999974	0.6856749119960502	0.7036733599155082	0.3640816342433945	0.5285061271742519	0.7104789550132729	0.5814326045738987
12.239999999999974	0.6826358121711439	0.7023565698413139	0.3643340600484993	0.5276754962524982	0.7106403000857238	0.5801970377468918
12.249999999999973	0.6796036506901212	0.7010620299976243	0.3645676725732749	0.5268170844967683	0.7109159260036577	0.5790329257218598
12.259999999999973	0.6765778346893682	0.6997937173945356	0.3647832146258183	0.525931283997532	0.7113091590687447	0.5779391164012332
12.269999999999973	0.6735577112823659	0.698555435776827	0.364981368793717	0.5250184936919481	0.7118229797371475	0.5769143682935124
12.279999999999973	0.6705425772811787	0.6973508085006956	0.3651627560078802	0.5240791229747965	0.7124600165565678	0.5759573588183282
12.289999999999973	0.6675316886613727	0.6961832718451848	0.3653279342937449	0.5231135951053952	0.7132225408214505	0.5750666925240924
12.299999999999972	0.6645242697387476	0.6950560687820907	0.3654773977151843	0.5221223503924681	0.7141124619572031	0.5742409091909467
12.309999999999972	0.6615195220274069	0.6939722432273125	0.365611575515892	0.5211058491386881	0.7151313236440338	0.5734784917909579
12.319999999999972	0.6585166327515608	0.6929346347949289	0.3657308314625878	0.5200645743272485	0.7162803006906088	0.5727778742769333
12.329999999999972	0.6555147829888037	0.6919458740735177	0.3658354633939075	0.5189990340349281	0.7175601966668317	0.5721374491709311
12.339999999999971	0.6525131554293555	0.6910083784421213	0.3659257029782882	0.5179097635596925	0.7189714423040318	0.5715555749235361
12.349999999999971	0.6495109417415593	0.6901243484411086	0.366001715683233	0.5167973272553558	0.7205140946694198	0.5710305830156145
12.359999999999971	0.6465073495368717	0.6892957647112657	0.366063600957496	0.5156623200697188	0.7221878371200736	0.570560784775263
12.36999999999997	0.6435016089280716	0.6885243855126649	0.3661113926269043	0.5145053687859323	0.7239919800402569	0.5701444778839273
12.37999999999997	0.6404929786733659	0.6878117448333911	0.3661450595039643	0.5133271329696529	0.725925462364832	0.5697799525469811
12.38999999999997	0.6374807518981426	0.6871591510964477	0.3661645062108479	0.5121283056273456	0.7279868538906616	0.5694654973058386
12.39999999999997	0.6344642613858205	0.6865676864714013	0.3661695742147295	0.5109096135837364	0.7301743583773292	0.5691994044715404
12.40999999999997	0.6314428844301953	0.6860382067951761	0.3661600430737736	0.509671817588303	0.732485817437964	0.5689799751636668
12.41999999999997	0.6284160472432034	0.685571342104628	0.3661356318913191	0.5084157121613228	0.7349187152202982	0.5688055239427995
12.42999999999997	0.625383228914124	0.685167497781639	0.3660960009752109	0.5071421251898249	0.737470183877254	0.568674383028579
12.43999999999997	0.6223439649175452	0.684826856309681	0.3660407536988826	0.5058519172832815	0.7401370098247264	0.5685849060981699
12.449999999999969	0.6192978501689395	0.6845493796392333	0.3659694385605209	0.5045459808986184	0.7429156407823634	0.5685354716619848
12.459999999999969	0.6162445416285786	0.6843348121576416	0.3658815514362888	0.5032252392440606	0.7458021935908526	0.5685244860149415
12.469999999999969	0.6131837604584506	0.6841826842577348	0.3657765380230008	0.5018906449712756	0.7487924627972359	0.5685503857628093
12.479999999999968	0.6101152937421586	0.6840923164978855	0.3656537964647487	0.5005431786649699	0.7518819299979518	0.5686116399244484
12.489999999999968	0.6070389957830181	0.6840628243447935	0.3655126801572249	0.4991838471390913	0.7550657739277168	0.5687067516124262
12.499999999999968	0.6039547889986049	0.6840931234884755	0.3653525007226336	0.4978136815490248	0.758338881280822	0.5688342592967748
12.509999999999968	0.6008626644311588	0.6841819357172365	0.3651725311475746	0.4964337353304855	0.7616958582495625	0.568992737660566
12.519999999999968	0.5977626818932749	0.6843277953389217	0.3649720090756435	0.4950450819773248	0.7651310427623964	0.5691807980608101
12.529999999999967	0.5946549697682881	0.6845290561331685	0.3647501402461346	0.4936488126720856	0.7686385174019801	0.5693970886128459
12.539999999999967	0.5915397244843178	0.6847838988178472	0.3645061020692567	0.4922460337841731	0.7722121229806284	0.5696402939190627
12.549999999999967	0.588417209681354	0.6850903390110966	0.3642390473274857	0.4908378642511349	0.7758454727481904	0.5699091344637506
12.559999999999967	0.5852877550912834	0.6854462356682681	0.3639481079915836	0.489425432859241	0.7795319672045851	0.5702023656958178
12.569999999999967	0.5821517551517509	0.6858492999710077	0.3636323991389556	0.488009875440933	0.7832648094866341	0.5705187768208724
12.579999999999966	0.5790096673748631	0.6862971046434145	0.3632910229611542	0.4865923320079858	0.7870370212959096	0.5708571893240483
12.589999999999966	0.5758620104910156	0.6867870936678597	0.3629230728469066	0.4851739438401359	0.7908414593317944	0.5712164552449636
12.599999999999966	0.5727093623870115	0.6873165923705893	0.3625276375266409	0.4837558505486891	0.794670832191284	0.5715954552261071
12.609999999999966	0.5695523578562228	0.6878828178450787	0.3621038052645235	0.4823391871339709	0.7985177176950317	0.5719930963555985
12.619999999999965	0.5663916861771161	0.6884828896789191	0.361650668083909	0.4809250810542727	0.8023745805969835	0.5724083098247996
12.629999999999965	0.5632280885350537	0.6891138409482519	0.3611673260122436	0.4795146493227278	0.8062337906332611	0.5728400484207277
12.639999999999965	0.5600623553008751	0.6897726294416248	0.3606528913311313	0.4781089956469822	0.8100876408642421	0.5732872838727919
12.649999999999965	0.5568953231787431	0.6904561490733766	0.3601064928171073	0.4767092076250278	0.8139283662622716	0.57374900407318
12.659999999999965	0.5537278722352856	0.6911612414444528	0.3595272799582474	0.47531635400883	0.8177481624965083	0.5742242101898395
12.669999999999964	0.5505609228220065	0.6918847075066507	0.3589144271312067	0.4739314820458277	0.8215392048656623	0.5747119136903884
12.679999999999964	0.547395432403065	0.6926233192841137	0.3582671377227633	0.4725556149067682	0.8252936673292044	0.5752111332947222
12.689999999999964	0.544232392300526	0.6933738316039942	0.3575846481793682	0.4711897492070604	0.8290037415870026	0.5757208918732447
12.699999999999964	0.5410728243694293	0.6941329937863175	0.3568662319675689	0.4698348526279841	0.8326616561560426	0.5762402133075563
12.709999999999964	0.5379177776159012	0.6948975612420984	0.3561112034280531	0.4684918616437713	0.8362596953904785	0.5767681193302675
12.719999999999963	0.5347683247723551	0.6956643069289586	0.3553189215057739	0.4671616793610453	0.8397902183888387	0.5773036263608401
12.729999999999963	0.5316255588443007	0.6964300326157321	0.3544887933388669	0.4658451734777368	0.8432456777296021	0.5778457423543201
